<?xml version="1.0" standalone="no"?>
<!DOCTYPE svg PUBLIC "-//W3C//DTD SVG 20010904//EN"
 "http://www.w3.org/TR/2001/REC-SVG-20010904/DTD/svg10.dtd">
<svg version="1.0" xmlns="http://www.w3.org/2000/svg"
 width="1024.000000pt" height="1024.000000pt" viewBox="0 0 1024.000000 1024.000000"
 preserveAspectRatio="xMidYMid meet">
<metadata>
Created by potrace 1.14, written by Peter Selinger 2001-2017
</metadata>
<g transform="translate(0.000000,1024.000000) scale(0.100000,-0.100000)"
fill="#000000" stroke="none">
<path d="M1459 10236 c-2 -2 -30 -7 -61 -9 -32 -3 -61 -8 -66 -11 -4 -2 -28
-7 -52 -10 -90 -11 -239 -61 -375 -126 -260 -125 -473 -309 -635 -550 -55 -81
-160 -284 -160 -308 0 -10 -4 -22 -9 -27 -9 -11 -34 -91 -58 -190 -20 -81 -21
-89 -30 -154 -10 -72 -11 -7351 -1 -7451 5 -41 17 -111 27 -155 117 -486 427
-874 866 -1085 168 -81 301 -120 500 -148 68 -10 7364 -9 7445 1 213 25 467
119 657 243 121 78 172 121 286 238 237 243 401 588 435 916 9 87 9 7348 0
7425 -8 65 -23 151 -32 175 -3 8 -7 26 -10 40 -18 103 -119 332 -206 465 -236
360 -624 621 -1032 695 -33 6 -74 14 -91 18 -34 7 -7391 15 -7398 8z"/>
</g>
</svg>
